<svg aria-hidden="true" style="position: absolute; width: 0; height: 0; overflow: hidden;" version="1.1" xmlns="http://www.w3.org/2000/svg" xmlns:xlink="http://www.w3.org/1999/xlink">
<defs>
<symbol id="arrow-left" viewBox="0 0 18 18" fill="none">
<path id="Vector" d="M14.3029 9.0005L3.6963 8.99935" stroke="#050505" stroke-width="1.5" stroke-linecap="round" stroke-linejoin="round"/>
<path id="Vector_2" d="M8.99902 14.3032L3.6963 8.99935L9.00017 3.69662" stroke="#050505" stroke-width="1.5" stroke-linecap="round" stroke-linejoin="round"/>
</symbol>
<symbol id="arrow-up" viewBox="0 0 32 32">
<path d="M16.178 10.311c0.356 0 0.889 0.178 1.067 0.533l8 8c0.711 0.711 0.711 1.6 0 2.311s-1.6 0.711-2.311 0l-6.756-6.933-6.933 6.933c-0.711 0.711-1.6 0.711-2.311 0s-0.711-1.6 0-2.311l8-8c0.356-0.356 0.889-0.533 1.244-0.533z"></path>
</symbol>
<symbol id="arrow-down" viewBox="0 0 32 32">
<path d="M16 21.689c-0.356 0-0.889-0.178-1.067-0.533l-8-8c-0.711-0.711-0.711-1.6 0-2.311s1.6-0.711 2.311 0l6.756 6.933 6.933-6.933c0.711-0.711 1.6-0.711 2.311 0s0.711 1.6 0 2.311l-8 8c-0.356 0.356-0.889 0.533-1.244 0.533z"></path>
</symbol>
<symbol id="arrow-up-right" viewBox="0 0 32 32">
<path d="M22.756 24c-0.711 0-1.422-0.533-1.422-1.422v-9.956l-11.022 11.022c-0.533 0.533-1.422 0.533-1.956 0s-0.533-1.422 0-1.956l11.022-11.022h-10.133c-0.711 0-1.244-0.533-1.244-1.244s0.533-1.422 1.422-1.422h13.333c0.178 0 0.356 0 0.533 0.178 0.178 0 0.356 0.178 0.356 0.356s0.178 0.356 0.356 0.356c0 0.178 0.178 0.356 0.178 0.533v13.333c-0.178 0.711-0.711 1.244-1.422 1.244z"></path>
</symbol>
<symbol id="burger-menu" viewBox="0 0 32 32">
<path d="M28 25.143h-24c-0.686 0-1.143-0.457-1.143-1.143s0.457-1.143 1.143-1.143h24c0.686 0 1.143 0.457 1.143 1.143s-0.457 1.143-1.143 1.143zM28 19.771h-24c-0.686 0-1.143-0.457-1.143-1.143s0.457-1.143 1.143-1.143h24c0.686 0 1.143 0.457 1.143 1.143s-0.457 1.143-1.143 1.143zM28 14.514h-24c-0.686 0-1.143-0.457-1.143-1.143s0.457-1.143 1.143-1.143h24c0.686 0 1.143 0.457 1.143 1.143s-0.457 1.143-1.143 1.143zM28 9.143h-24c-0.686 0-1.143-0.457-1.143-1.143s0.457-1.143 1.143-1.143h24c0.686 0 1.143 0.457 1.143 1.143s-0.457 1.143-1.143 1.143z"></path>
</symbol>
<symbol id="check-box" viewBox="0 0 32 32">
<path d="M20.8 31.52h-9.6c-5.92 0-10.56-4.8-10.56-10.72v-9.6c0-5.92 4.8-10.56 10.56-10.56h9.6c5.92 0 10.72 4.8 10.72 10.56v9.6c0 5.92-4.8 10.72-10.72 10.72zM11.2 2.72c-4.8 0-8.64 3.68-8.64 8.48v9.6c0 4.8 3.84 8.48 8.64 8.48h9.6c4.8 0 8.48-3.84 8.48-8.48v-9.6c0-4.8-3.84-8.64-8.48-8.64h-9.6z"></path>
</symbol>
<symbol id="check-box-checked" viewBox="0 0 32 32">
<path fill="#050505" style="fill: var(--color1, #050505)" d="M10.667 0h10.667c5.867 0 10.667 4.8 10.667 10.667v10.667c0 5.867-4.8 10.667-10.667 10.667h-10.667c-5.867 0-10.667-4.8-10.667-10.667v-10.667c0-5.867 4.8-10.667 10.667-10.667z"></path>
<path fill="#fff" style="fill: var(--color2, #fff)" d="M14.578 23.644l-6.756-4.444 2.133-2.844 3.911 2.667 8.889-9.6 2.489 2.489z"></path>
</symbol>
<symbol id="close" viewBox="0 0 32 32">
<path d="M24 25.333c-0.4 0-0.667-0.133-0.933-0.4l-7.067-7.067-7.067 7.067c-0.533 0.533-1.333 0.533-1.867 0s-0.533-1.333 0-1.867l7.067-7.067-7.067-7.067c-0.533-0.533-0.533-1.333 0-1.867s1.333-0.533 1.867 0l7.067 7.067 7.067-7.067c0.533-0.533 1.333-0.533 1.867 0s0.533 1.333 0 1.867l-7.067 7.067 7.067 7.067c0.533 0.533 0.533 1.333 0 1.867-0.267 0.267-0.533 0.4-0.933 0.4z"></path>
</symbol>
<symbol id="eye-open" viewBox="0 0 32 32">
<path d="M16 28.16c-10.080 0-15.68-11.040-16-11.52-0.16-0.48-0.16-0.96 0-1.28 0.16-0.48 5.92-11.52 16-11.52s15.68 11.040 16 11.52c0.16 0.48 0.16 0.96 0 1.28-0.32 0.48-5.92 11.52-16 11.52zM3.040 16c1.28 2.24 5.92 9.28 12.96 9.28s11.68-7.040 12.96-9.28c-1.28-2.24-5.92-9.28-12.96-9.28s-11.68 7.040-12.96 9.28z"></path>
<path d="M16 21.44c-3.040 0-5.44-2.4-5.44-5.44s2.4-5.44 5.44-5.44 5.44 2.4 5.44 5.44-2.4 5.44-5.44 5.44zM16 13.44c-1.44 0-2.56 1.12-2.56 2.56s1.12 2.56 2.56 2.56 2.56-1.12 2.56-2.56-1.12-2.56-2.56-2.56z"></path>
</symbol>
<symbol id="eye-private" viewBox="0 0 32 32">
<path d="M30.72 32.16c-0.32 0-0.8-0.16-0.96-0.48l-5.92-5.92c-2.24 1.44-4.96 2.24-7.68 2.24-10.080 0-15.68-11.040-16-11.52-0.16-0.48-0.16-0.96 0-1.28 1.44-2.72 3.36-5.12 5.76-7.2l-5.6-5.6c-0.64-0.64-0.64-1.44 0-2.080s1.44-0.64 2.080 0l6.72 6.72c0 0 0 0 0 0l15.84 15.84c0 0 0 0 0 0l6.72 6.72c0.64 0.64 0.64 1.44 0 2.080-0.32 0.32-0.64 0.48-0.96 0.48zM3.040 16c1.28 2.24 5.92 9.28 12.96 9.28 1.92 0 4-0.48 5.6-1.6l-2.88-2.88c-0.8 0.48-1.76 0.8-2.56 0.8-1.44 0-2.88-0.48-3.84-1.44 0 0-0.16-0.16-0.16-0.16-0.96-0.96-1.6-2.4-1.6-3.84 0-0.96 0.32-1.92 0.8-2.88l-3.2-3.2c-2.24 1.6-3.84 3.68-5.12 5.92zM13.44 15.52c-0.16 0.8 0 1.76 0.64 2.4 0.64 0.48 1.28 0.8 1.92 0.8 0.16 0 0.32 0 0.48 0l-3.040-3.2zM27.84 21.76c-0.32 0-0.64-0.16-0.96-0.32-0.64-0.48-0.64-1.44-0.16-2.080 0.8-0.96 1.6-2.080 2.4-3.36-1.28-2.24-5.92-9.28-12.96-9.28-0.8 0-1.6 0.16-2.4 0.32-0.96 0.16-1.76-0.32-1.92-1.12-0.16-0.64 0.32-1.44 0.96-1.6 0.96-0.16 2.080-0.32 3.2-0.32 10.080 0 15.68 11.040 16 11.52 0.16 0.48 0.16 0.96 0 1.28-0.8 1.6-1.92 3.040-3.040 4.48-0.32 0.32-0.8 0.48-1.12 0.48z"></path>
</symbol>
<symbol id="facebook" viewBox="0 0 32 32">
<path d="M19.52 4.64h0.96v3.6h-1.2c-0.48 0-0.96 0-1.2 0.24s-0.24 0.48-0.24 1.040v1.28h2.64v3.040h-2.64v13.2h-4.080v-13.28h-2.16v-3.040h2.16v-1.040c0-1.76 0.24-3.040 0.72-3.6 0.72-1.040 2.16-1.52 4.32-1.52 0.24 0.080 0.48 0.080 0.72 0.080z"></path>
</symbol>
<symbol id="favicon" viewBox="0 0 32 32">
<path fill="#050505" style="fill: var(--color1, #050505)" d="M0 0h32v32h-32z"></path>
<path fill="#fff" style="fill: var(--color2, #fff)" d="M7.253 14.933v-3.362h-0.819v-0.964h1.186l-0.367 0.333v-0.623c0-0.563 0.145-0.987 0.435-1.271 0.296-0.284 0.737-0.427 1.323-0.427 0.131 0 0.27 0.009 0.418 0.026 0.154 0.017 0.287 0.051 0.401 0.102v0.99c-0.079-0.028-0.172-0.049-0.268-0.059l-0.005-0c-0.090-0.016-0.193-0.025-0.298-0.026h-0c-0.131 0-0.253 0.023-0.367 0.068-0.112 0.049-0.202 0.128-0.263 0.228l-0.001 0.002c-0.063 0.102-0.094 0.242-0.094 0.418v0.452l-0.179-0.213h1.271v0.964h-1.084v3.362h-1.289zM11.998 15.027c-0.461 0-0.862-0.091-1.203-0.273-0.332-0.186-0.599-0.453-0.78-0.775l-0.005-0.010c-0.182-0.336-0.273-0.737-0.273-1.203 0-0.461 0.091-0.859 0.273-1.195 0.184-0.331 0.452-0.595 0.775-0.771l0.010-0.005c0.341-0.182 0.742-0.273 1.203-0.273s0.862 0.091 1.203 0.273 0.603 0.441 0.785 0.777c0.188 0.336 0.282 0.734 0.282 1.195 0 0.466-0.094 0.868-0.282 1.203-0.182 0.336-0.444 0.597-0.785 0.785-0.341 0.182-0.742 0.273-1.203 0.273zM11.998 14.054c0.296 0 0.529-0.105 0.7-0.316 0.176-0.21 0.265-0.535 0.265-0.973s-0.088-0.759-0.265-0.964c-0.171-0.205-0.404-0.307-0.7-0.307s-0.532 0.102-0.708 0.307c-0.171 0.205-0.256 0.526-0.256 0.964s0.085 0.762 0.256 0.973c0.176 0.21 0.412 0.316 0.708 0.316zM16.978 15.027c-0.461 0-0.862-0.091-1.203-0.273-0.332-0.186-0.6-0.453-0.781-0.775l-0.005-0.010c-0.181-0.336-0.272-0.737-0.272-1.203 0-0.461 0.091-0.859 0.272-1.195 0.185-0.331 0.452-0.596 0.776-0.771l0.010-0.005c0.341-0.182 0.742-0.273 1.203-0.273s0.862 0.091 1.203 0.273 0.603 0.441 0.785 0.777c0.188 0.336 0.282 0.734 0.282 1.195 0 0.466-0.095 0.868-0.282 1.203-0.182 0.336-0.444 0.597-0.785 0.785-0.341 0.182-0.742 0.273-1.203 0.273zM16.978 14.054c0.296 0 0.529-0.105 0.699-0.316 0.176-0.21 0.265-0.535 0.265-0.973s-0.087-0.759-0.265-0.964c-0.171-0.205-0.403-0.307-0.699-0.307s-0.532 0.102-0.709 0.307c-0.171 0.205-0.256 0.526-0.256 0.964s0.085 0.762 0.256 0.973c0.176 0.21 0.412 0.316 0.709 0.316zM21.607 15.027c-0.375 0-0.708-0.091-0.998-0.273-0.284-0.182-0.509-0.441-0.674-0.777-0.159-0.336-0.239-0.74-0.239-1.212 0-0.466 0.080-0.868 0.239-1.203s0.384-0.592 0.674-0.768c0.274-0.172 0.608-0.273 0.965-0.273 0.012 0 0.024 0 0.035 0l-0.002-0c0.341 0 0.646 0.082 0.913 0.247 0.273 0.159 0.455 0.375 0.546 0.649h-0.111v-2.765h1.289v6.281h-1.271v-0.845h0.111c-0.091 0.284-0.273 0.512-0.546 0.683s-0.583 0.256-0.93 0.256zM21.991 14.054c0.296 0 0.535-0.105 0.717-0.316s0.273-0.535 0.273-0.973c0-0.438-0.091-0.759-0.273-0.964s-0.421-0.307-0.717-0.307c-0.296 0-0.538 0.102-0.725 0.307-0.182 0.205-0.273 0.526-0.273 0.964s0.091 0.762 0.273 0.973c0.188 0.21 0.43 0.316 0.725 0.316zM6.929 23.467v-4.326h1.289v4.326h-1.289zM6.878 18.432v-1.203h1.382v1.203h-1.382zM11.276 23.561c-0.751 0-1.337-0.202-1.758-0.606s-0.631-0.953-0.631-1.647c0-0.449 0.088-0.842 0.265-1.178 0.182-0.336 0.432-0.597 0.751-0.785 0.324-0.193 0.703-0.29 1.135-0.29 0.427 0 0.782 0.091 1.067 0.273 0.29 0.182 0.506 0.438 0.649 0.768 0.148 0.324 0.222 0.703 0.222 1.135v0.299h-3.029v-0.64h2.091l-0.145 0.119c0-0.358-0.074-0.629-0.222-0.811-0.142-0.188-0.35-0.282-0.623-0.282-0.302 0-0.535 0.111-0.7 0.333-0.159 0.222-0.239 0.54-0.239 0.956v0.137c0 0.421 0.102 0.734 0.307 0.939 0.21 0.205 0.512 0.307 0.905 0.307 0.233 0 0.452-0.028 0.657-0.085 0.21-0.063 0.41-0.159 0.597-0.29l0.358 0.853c-0.215 0.157-0.464 0.283-0.734 0.363l-0.017 0.004c-0.279 0.085-0.58 0.128-0.905 0.128zM15.217 23.561c-0.387 0-0.74-0.043-1.058-0.128-0.308-0.078-0.578-0.201-0.82-0.364l0.009 0.006 0.333-0.853c0.222 0.137 0.466 0.245 0.734 0.324 0.273 0.080 0.543 0.119 0.811 0.119 0.25 0 0.435-0.040 0.555-0.119 0.108-0.066 0.179-0.184 0.179-0.318 0-0.002-0-0.005-0-0.007v0c0-0.005 0-0.011 0-0.016 0-0.1-0.047-0.19-0.119-0.248l-0.001-0c-0.074-0.063-0.191-0.108-0.35-0.137l-0.879-0.162c-0.37-0.074-0.651-0.21-0.845-0.41s-0.29-0.458-0.29-0.777c0-0.279 0.074-0.523 0.222-0.734 0.154-0.216 0.373-0.384 0.657-0.503s0.617-0.179 0.998-0.179c0.324 0 0.631 0.040 0.922 0.119s0.538 0.202 0.742 0.367l-0.35 0.828c-0.176-0.13-0.38-0.237-0.599-0.311l-0.016-0.005c-0.195-0.073-0.421-0.117-0.656-0.119h-0.001c-0.273 0-0.469 0.046-0.589 0.137-0.108 0.071-0.179 0.192-0.179 0.329 0 0.001 0 0.003 0 0.004v-0c0 0.102 0.034 0.188 0.102 0.256 0.074 0.068 0.185 0.119 0.333 0.154l0.887 0.162c0.381 0.068 0.671 0.196 0.87 0.384s0.299 0.447 0.299 0.777c0 0.302-0.080 0.558-0.239 0.768s-0.384 0.373-0.674 0.486c-0.284 0.114-0.614 0.171-0.99 0.171z"></path>
</symbol>
<symbol id="heart" viewBox="0 0 32 32">
<path d="M16 29.689c-0.356 0-0.711-0.178-0.889-0.356l-11.911-11.911c-3.2-3.378-3.2-8.889 0-12.089 1.778-1.778 3.911-2.667 6.222-2.667 0 0 0 0 0 0 2.311 0 4.444 0.889 6.044 2.489l0.533 0.533 0.533-0.533c1.6-1.6 3.733-2.489 6.044-2.489 0 0 0 0 0 0 2.311 0 4.444 0.889 6.044 2.489v0c3.378 3.378 3.378 8.889 0 12.267l-11.733 11.733c-0.178 0.356-0.533 0.533-0.889 0.533zM9.422 5.333c0 0 0 0 0 0-1.6 0-3.2 0.711-4.267 1.778-2.311 2.311-2.311 6.044 0 8.533l10.844 10.844 10.844-10.844c2.311-2.311 2.311-6.222 0-8.533v0c-1.067-1.067-2.667-1.778-4.267-1.778v0c-1.6 0-3.022 0.711-4.267 1.778l-1.422 1.422c-0.533 0.533-1.422 0.533-1.956 0l-1.244-1.422c-1.244-1.067-2.667-1.778-4.267-1.778z"></path>
</symbol>
<symbol id="instagram" viewBox="0 0 32 32">
<path d="M28.717 10.755c-0.016-1.134-0.233-2.212-0.617-3.207l0.021 0.063c-0.681-1.722-2.021-3.059-3.7-3.722l-0.044-0.015c-0.921-0.355-1.985-0.572-3.097-0.595l-0.010-0c-1.366-0.062-1.798-0.078-5.27-0.078s-3.917 0-5.274 0.078c-1.062 0.022-2.112 0.224-3.107 0.595-1.723 0.678-3.062 2.016-3.727 3.693l-0.015 0.044c-0.357 0.919-0.573 1.981-0.595 3.092l-0 0.009c-0.062 1.366-0.082 1.8-0.082 5.264 0 3.467 0 3.91 0.080 5.267 0.021 1.061 0.221 2.109 0.595 3.104 0.682 1.721 2.021 3.057 3.7 3.719l0.044 0.015c0.918 0.37 1.98 0.602 3.091 0.64l0.016 0c1.368 0.058 1.802 0.078 5.274 0.078s3.917 0 5.274-0.080c1.122-0.022 2.188-0.238 3.173-0.615l-0.064 0.022c1.722-0.68 3.060-2.017 3.727-3.693l0.016-0.044c0.356-0.92 0.573-1.983 0.595-3.095l0-0.009c0.061-1.365 0.080-1.798 0.080-5.264-0.003-3.467-0.003-3.907-0.083-5.264zM15.99 22.531c-0.002 0-0.005 0-0.008 0-3.624 0-6.562-2.936-6.565-6.56v-0c0-3.626 2.942-6.562 6.573-6.562 0.001 0 0.003 0 0.005 0 3.624 0 6.563 2.936 6.566 6.56v0c0 3.626-2.944 6.562-6.571 6.562zM22.822 10.696c-0.845 0-1.53-0.685-1.53-1.53s0.685-1.53 1.53-1.53v0c0.845 0 1.53 0.685 1.53 1.53s-0.685 1.53-1.53 1.53v0z"></path>
<path d="M15.992 19.976c2.211 0 4.004-1.793 4.004-4.004s-1.793-4.004-4.004-4.004v0c-2.211 0-4.004 1.793-4.004 4.004s1.793 4.004 4.004 4.004v0z"></path>
</symbol>
<symbol id="minus" viewBox="0 0 32 32">
<path d="M25.4 17.6h-18.8c-0.8 0-1.4-0.8-1.4-1.6s0.6-1.6 1.6-1.6h18.6c0.8 0 1.6 0.6 1.6 1.6s-0.8 1.6-1.6 1.6z"></path>
</symbol>
<symbol id="photo" viewBox="0 0 33 32">
<path d="M11.7 28.45h-4.55c-1.8 0-3.3-1.5-3.3-3.3v-4.55c0-0.15 0.1-0.25 0.25-0.25s0.25 0.1 0.25 0.25v4.55c0 1.55 1.25 2.8 2.8 2.8h4.55c0.15 0 0.25 0.1 0.25 0.25s-0.15 0.25-0.25 0.25zM25.4 28.45h-4.55c-0.15 0-0.25-0.1-0.25-0.25s0.1-0.25 0.25-0.25h4.55c1.55 0 2.8-1.25 2.8-2.8v-4.55c0-0.15 0.1-0.25 0.25-0.25s0.25 0.1 0.25 0.25v4.55c0 1.8-1.5 3.3-3.3 3.3zM4.050 11.7c-0.15 0-0.25-0.1-0.25-0.25v-4.6c0-1.8 1.45-3.3 3.3-3.3h4.6c0 0 0 0 0 0 0.15 0 0.25 0.1 0.25 0.25s-0.1 0.25-0.25 0.25h-4.6c-1.55 0-2.8 1.25-2.8 2.8v4.6c0 0.1-0.1 0.25-0.25 0.25zM28.45 11.7c-0.15 0-0.25-0.1-0.25-0.25v-4.6c0-1.55-1.25-2.8-2.8-2.8h-4.6c-0.15 0-0.25-0.1-0.25-0.25s0.1-0.25 0.25-0.25c0 0 0 0 0 0h4.6c1.8 0 3.3 1.5 3.3 3.3v4.6c0 0.1-0.1 0.25-0.25 0.25z"></path>
<path d="M16.25 18.75c0.6 0 1.15-0.2 1.6-0.65s0.65-1 0.65-1.6-0.2-1.15-0.65-1.6-0.95-0.65-1.6-0.65-1.15 0.2-1.6 0.65-0.65 1-0.65 1.6 0.2 1.15 0.65 1.6 0.95 0.65 1.6 0.65zM12.25 20.5c-0.25 0-0.5-0.1-0.7-0.3s-0.3-0.45-0.3-0.7v-6c0-0.25 0.1-0.5 0.3-0.7s0.45-0.3 0.7-0.3h1.55l0.95-1h3l0.9 1h1.6c0.25 0 0.5 0.1 0.7 0.3s0.3 0.45 0.3 0.7v6c0 0.25-0.1 0.5-0.3 0.7s-0.45 0.3-0.7 0.3h-8z"></path>
</symbol>
<symbol id="plus" viewBox="0 0 32 32">
<path d="M16 26.8c-0.8 0-1.6-0.6-1.6-1.6v-7.6h-7.8c-0.8 0-1.4-0.8-1.4-1.6s0.6-1.6 1.6-1.6h7.8v-7.8c0-0.8 0.6-1.6 1.6-1.6s1.6 0.6 1.6 1.6v7.8h7.8c0.8 0 1.6 0.6 1.6 1.6s-0.6 1.6-1.6 1.6h-8v7.8c0 0.8-0.8 1.4-1.6 1.4z"></path>
</symbol>
<symbol id="quotes" viewBox="0 0 39 32">
<path d="M0 32v-10.706c0-4 0.705-7.687 2.113-11.059s3.797-6.785 7.162-10.235l6.106 4.823c-1.957 1.961-3.444 3.804-4.462 5.529s-1.683 3.491-1.996 5.295h7.515v16.353h-16.438zM22.895 32v-10.706c0-4 0.705-7.687 2.113-11.059s3.797-6.785 7.163-10.235l6.105 4.823c-1.957 1.961-3.444 3.804-4.462 5.529s-1.683 3.491-1.996 5.295h7.515v16.353h-16.438z"></path>
</symbol>
<symbol id="trash" viewBox="0 0 32 32">
<path d="M17.956 29.333h-3.911c-2.311 0-3.556 0-4.622-0.533-0.889-0.533-1.778-1.244-2.311-2.133-0.533-1.067-0.711-2.311-0.889-4.444l-0.889-12.8h-1.422c-0.711 0-1.422-0.533-1.422-1.422s0.533-1.422 1.422-1.422h2.667c0 0 0 0 0 0h18.667c0 0 0 0 0 0h2.667c0.711 0 1.422 0.533 1.422 1.422s-0.533 1.422-1.422 1.422h-1.244l-0.889 12.8c-0.178 2.311-0.178 3.556-0.889 4.444-0.533 0.889-1.422 1.6-2.311 2.133-1.067 0.533-2.311 0.533-4.622 0.533zM8.178 9.422l0.711 12.444c0.178 1.778 0.178 2.844 0.533 3.378s0.711 0.889 1.067 1.067c0.711 0.356 1.6 0.356 3.556 0.356h4.089c1.778 0 2.844 0 3.378-0.356 0.533-0.178 0.889-0.533 1.244-1.067s0.356-1.6 0.533-3.378l0.889-12.622h-16zM19.911 5.333h-7.822c-0.889 0-1.422-0.533-1.422-1.244s0.533-1.422 1.422-1.422h8c0.711 0 1.422 0.533 1.422 1.422s-0.711 1.244-1.6 1.244z"></path>
</symbol>
<symbol id="youtube" viewBox="0 0 32 32">
<path d="M30.112 9.357s-0.288-2.080-1.152-2.973c-1.056-1.187-2.304-1.187-2.88-1.286-4.032-0.298-10.080-0.298-10.080-0.298s-6.048 0-10.080 0.298c-0.576 0.099-1.824 0.099-2.88 1.286-0.864 0.893-1.152 2.973-1.152 2.973s-0.288 2.376-0.288 4.754v2.179c0 2.378 0.288 4.853 0.288 4.853s0.288 2.080 1.152 2.971c1.056 1.189 2.496 1.189 3.168 1.288 2.304 0.099 9.792 0.198 9.792 0.198s6.048 0 10.080-0.298c0.576-0.099 1.824-0.099 2.88-1.288 0.864-0.891 1.152-2.971 1.152-2.971s0.288-2.376 0.288-4.754v-2.179c0-2.378-0.288-4.754-0.288-4.754zM13.024 19.062v-8.32l7.776 4.16-7.776 4.16z"></path>
</symbol>
<symbol id="icon-add" viewBox="0 0 33 32">
<path d="M16.571 0c8.837 0 16 7.163 16 16s-7.163 16-16 16c-8.837 0-16-7.163-16-16s7.163-16 16-16z"></path>
<path fill="none" stroke="#fff" style="stroke: var(--color1, #fff)" stroke-linejoin="round" stroke-linecap="round" stroke-miterlimit="4" stroke-width="1.3714" d="M16.571 10.667v10.667"></path>
<path fill="none" stroke="#fff" style="stroke: var(--color1, #fff)" stroke-linejoin="round" stroke-linecap="round" stroke-miterlimit="4" stroke-width="1.3714" d="M11.239 16h10.667"></path>
</symbol>
</defs>
</svg>
